<?xml version="1.0" encoding="utf-8"?>
<svg width="54px" height="54px" viewBox="0 0 54 54" version="1.1" xmlns:xlink="http://www.w3.org/1999/xlink" xmlns="http://www.w3.org/2000/svg">
  <defs>
    <path d="M34 0L34 0L34 34L0 34L0 0L34 0Z" id="path_1" />
    <clipPath id="clip_1">
      <use xlink:href="#path_1" clip-rule="evenodd" fill-rule="evenodd" />
    </clipPath>
  </defs>
  <g id="Group-89">
    <path d="M0 0L54 0L54 54L0 54L0 0Z" id="Rectangle-37" fill="#FFA2A2" fill-opacity="0" fill-rule="evenodd" stroke="none" />
    <g id="Group-85" transform="translate(10 10)">
      <g id="Group">
        <g id="Frame 4" clip-path="url(#clip_1)">
          <path d="M34 0L34 0L34 34L0 34L0 0L34 0Z" id="Frame-4" fill="none" stroke="none" />
          <g id="Group" transform="translate(1.0625 0)">
            <path d="M22.9098 10.0938L18.3418 10.0938L20.3339 8.10156L22.9098 8.10156C23.4604 8.10156 23.9059 7.65604 23.9059 7.10547C23.9059 6.55489 23.4604 6.10938 22.9098 6.10938L11.8418 6.10938C11.2913 6.10938 10.8458 6.55489 10.8458 7.10547C10.8458 7.65604 11.2913 8.10156 11.8418 8.10156L17.5169 8.10156L15.5247 10.0938L12.9488 10.0938C12.3983 10.0938 11.9527 10.5393 11.9527 11.0898C11.9527 11.6404 12.3983 12.0859 12.9488 12.0859L22.9098 12.0859C23.4604 12.0859 23.9059 11.6404 23.9059 11.0898C23.9059 10.5393 23.4604 10.0938 22.9098 10.0938L22.9098 10.0938ZM22.9102 18.0625C23.4607 18.0625 23.9062 17.617 23.9062 17.0664C23.9062 16.5158 23.4607 16.0703 22.9102 16.0703L12.9492 16.0703C12.3986 16.0703 11.9531 16.5158 11.9531 17.0664C11.9531 17.617 12.3986 18.0625 12.9492 18.0625L17.5172 18.0625L15.5251 20.0547L12.9492 20.0547C12.3986 20.0547 11.9531 20.5002 11.9531 21.0508C11.9531 21.6014 12.3986 22.0469 12.9492 22.0469L22.9102 22.0469C23.4607 22.0469 23.9062 21.6014 23.9062 21.0508C23.9062 20.5002 23.4607 20.0547 22.9102 20.0547L18.3421 20.0547L20.3343 18.0625L22.9102 18.0625Z" id="Shape" fill="#5A77B3" fill-rule="evenodd" stroke="none" />
            <path d="M16.9336 33.9999C16.383 33.9999 15.9375 33.5544 15.9375 33.0038C15.9375 32.4542 15.4901 32.0077 14.9414 32.0077L13.9453 32.0077C12.845 32.0077 11.9531 31.1158 11.9531 30.0155L11.9531 25.035C11.9531 24.4782 12.4172 24.0364 12.974 24.0391C15.7097 24.0524 17.9297 26.2816 17.9297 29.0194L17.9297 33.0038C17.9297 33.5544 17.4842 33.9999 16.9336 33.9999L16.9336 33.9999Z" id="Shape" fill="#465D8C" stroke="none" />
            <path d="M0.996094 33.9999C0.44552 33.9999 0 33.5544 0 33.0038L0 29.0194C0 26.2816 2.22003 24.0524 4.9557 24.0391C5.51245 24.0364 5.97656 24.4782 5.97656 25.035L5.97656 30.0155C5.97656 31.1158 5.08466 32.0077 3.98438 32.0077L2.98828 32.0077C2.43963 32.0077 1.99219 32.4542 1.99219 33.0038C1.99219 33.5544 1.54667 33.9999 0.996094 33.9999L0.996094 33.9999Z" id="Shape" fill="#5A77B3" stroke="none" />
            <path d="M13.9453 11.0916L13.9453 32.0096L3.98438 32.0096L3.98438 11.0916L8.96484 9.09945L13.9453 11.0916Z" id="Shape" fill="#ECF2FF" stroke="none" />
            <path d="M8.96036 9.10104L8.96036 32.0096L13.9447 32.0096L13.9447 11.0916L8.96421 9.09945L8.96036 9.10104Z" id="Shape" fill="#D9E5FF" stroke="none" />
            <path d="M8.96484 34C8.41427 34 7.96875 33.5545 7.96875 33.0039L7.96875 25.0352C7.96875 24.4846 8.41427 24.0391 8.96484 24.0391C9.51542 24.0391 9.96094 24.4846 9.96094 25.0352L9.96094 33.0039C9.96094 33.5545 9.51542 34 8.96484 34L8.96484 34Z" id="Shape" fill="#5A77B3" stroke="none" />
            <path d="M7.96875 15.0742C7.96875 14.5241 8.41472 14.0781 8.96484 14.0781C9.51497 14.0781 9.96094 14.5241 9.96094 15.0742C9.96094 15.6243 9.51497 16.0703 8.96484 16.0703C8.41472 16.0703 7.96875 15.6243 7.96875 15.0742Z" id="Circle" fill="#99BBFF" fill-rule="evenodd" stroke="none" />
            <path d="M7.96875 19.0586C7.96875 18.5085 8.41472 18.0625 8.96484 18.0625C9.51497 18.0625 9.96094 18.5085 9.96094 19.0586C9.96094 19.6087 9.51497 20.0547 8.96484 20.0547C8.41472 20.0547 7.96875 19.6087 7.96875 19.0586Z" id="Circle" fill="#99BBFF" fill-rule="evenodd" stroke="none" />
            <path d="M13.9453 11.0898C13.9453 9.23711 13.2281 7.20508 11.7936 5.05345C11.0504 3.95967 10.3452 3.01318 9.96094 2.59941L9.96094 0.996094C9.96094 0.44552 9.51542 0 8.96484 0C8.41427 0 7.96875 0.44552 7.96875 0.996094L7.96875 2.602C7.0028 3.64145 3.98438 7.35728 3.98438 11.0898L13.9453 11.0898Z" id="Shape" fill="#FF7F40" stroke="none" />
            <path d="M8.96428 14.0781C8.96281 14.0781 8.96182 14.0789 8.96036 14.0789L8.96036 16.0696C8.96182 16.0696 8.96281 16.0703 8.96428 16.0703C9.51438 16.0703 9.96037 15.6243 9.96037 15.0742C9.96037 14.524 9.51438 14.0781 8.96428 14.0781L8.96428 14.0781ZM8.96428 18.0625C8.96281 18.0625 8.96182 18.0632 8.96036 18.0632L8.96036 20.054C8.96182 20.054 8.96281 20.0547 8.96428 20.0547C9.51438 20.0547 9.96037 19.6087 9.96037 19.0586C9.96037 18.5084 9.51438 18.0625 8.96428 18.0625L8.96428 18.0625Z" id="Shape" fill="#738AFF" fill-rule="evenodd" stroke="none" />
            <path d="M8.96428 24.0391C8.96281 24.0391 8.96182 24.0398 8.96036 24.0398L8.96036 33.9993C8.96182 33.9993 8.96281 34 8.96428 34C9.51485 34 9.96037 33.5545 9.96037 33.0039L9.96037 25.0352C9.96037 24.4846 9.51485 24.0391 8.96428 24.0391L8.96428 24.0391Z" id="Shape" fill="#465D8C" stroke="none" />
            <path d="M8.96428 0C8.96281 0 8.96182 0.000730469 8.96036 0.000730469L8.96036 11.0898L13.9447 11.0898C13.9447 9.23711 13.2276 7.20508 11.793 5.05345C11.0499 3.95974 10.3446 3.01325 9.96037 2.59941L9.96037 0.996094C9.96037 0.44552 9.51485 0 8.96428 0L8.96428 0Z" id="Shape" fill="#F25A3C" stroke="none" />
            <path d="M22.9096 8.10156C23.4602 8.10156 23.9057 7.65604 23.9057 7.10547C23.9057 6.55489 23.4602 6.10938 22.9096 6.10938L17.9252 6.10938L17.9252 12.0859L22.9096 12.0859C23.4602 12.0859 23.9057 11.6404 23.9057 11.0898C23.9057 10.5393 23.4602 10.0938 22.9096 10.0938L18.3416 10.0938L20.3338 8.10156L22.9096 8.10156ZM22.9096 18.0625C23.4602 18.0625 23.9057 17.617 23.9057 17.0664C23.9057 16.5158 23.4602 16.0703 22.9096 16.0703L17.9252 16.0703L17.9252 22.0469L22.9096 22.0469C23.4602 22.0469 23.9057 21.6014 23.9057 21.0508C23.9057 20.5002 23.4602 20.0547 22.9096 20.0547L18.3416 20.0547L20.3338 18.0625L22.9096 18.0625ZM30.8789 0L22.9102 0C22.3608 0 21.9141 0.450898 21.9141 0.996094L21.9141 33.0039C21.9141 33.5532 22.365 34 22.9102 34L30.8789 34C31.4295 34 31.875 33.5545 31.875 33.0039L31.875 0.996094C31.875 0.44552 31.4295 0 30.8789 0L30.8789 0ZM28.4743 8.10011L23.9063 8.10011L23.9063 3.39928L28.4743 8.10011ZM23.9063 10.0938L28.4743 10.0938L23.9063 14.6618L23.9063 10.0938ZM23.9063 19.4696L28.4743 24.0376L23.9063 24.0376L23.9063 19.4696ZM23.9063 26.0313L28.4743 26.0313L23.9063 30.5993L23.9063 26.0313ZM25.3142 18.0625L29.8823 18.0625L29.8823 22.6305L25.3142 18.0625ZM29.8823 16.0689L25.3142 16.0689L29.8823 11.5008L29.8823 16.0689ZM29.8823 6.69302L25.3142 1.99219L29.8823 1.99219L29.8823 6.69302ZM25.3142 32.0064L29.8823 27.4383L29.8823 32.0064L25.3142 32.0064Z" id="Group" fill="#465D8C" fill-rule="evenodd" stroke="none" />
          </g>
        </g>
      </g>
    </g>
  </g>
</svg>