<?xml version="1.0" encoding="utf-8"?>
<svg width="54px" height="54px" viewBox="0 0 54 54" version="1.1" xmlns:xlink="http://www.w3.org/1999/xlink" xmlns="http://www.w3.org/2000/svg">
  <defs>
    <path d="M45.033 0L45.033 0L45.033 42.2474L0 42.2474L0 0L45.033 0Z" id="path_1" />
    <clipPath id="clip_1">
      <use xlink:href="#path_1" clip-rule="evenodd" fill-rule="evenodd" />
    </clipPath>
  </defs>
  <g id="Group-88">
    <path d="M0 0L54 0L54 54L0 54L0 0Z" id="Rectangle-36" fill="#FFA2A2" fill-opacity="0" fill-rule="evenodd" stroke="none" />
    <g id="Group-84" transform="translate(4.4833984 5.875)">
      <g id="Group">
        <g id="Frame 4" clip-path="url(#clip_1)">
          <path d="M45.033 0L45.033 0L45.033 42.2474L0 42.2474L0 0L45.033 0Z" id="Frame-4" fill="none" stroke="none" />
          <g id="Group" transform="translate(4.9311404 2.1597283)">
            <path d="M19.3129 5.78299L20.3567 4.7392L22.1684 6.55089L21.1246 7.59468L19.3129 5.78299ZM20.904 4.19369L21.9478 3.1499L23.7595 4.96159L22.7157 6.00538L20.904 4.19369ZM23.2619 6.55074L24.3057 5.50695L26.1174 7.31862L25.0736 8.36241L23.2619 6.55074ZM24.2656 13.2246L25.7437 14.7027L31.1979 9.24847C31.384 9.06243 31.384 8.75969 31.1979 8.57364L28.9166 6.29224C28.7305 6.10621 28.4278 6.10621 28.2417 6.29224L22.7875 11.7465L24.2656 13.2246ZM16.9558 3.42595L17.9996 2.38216L19.8113 4.19382L18.7675 5.23761L16.9558 3.42595Z" id="Shape" fill="#7BC3FF" fill-rule="evenodd" stroke="none" />
            <path d="M22.2012 12.2552L21.1385 13.0345C21.0978 13.0644 21.089 13.1051 21.0873 13.1267C21.0857 13.1483 21.0882 13.1898 21.1239 13.2255L24.2648 16.3664C24.3005 16.4021 24.342 16.4046 24.3636 16.403C24.3852 16.4013 24.4259 16.3925 24.4557 16.3518L25.2351 15.2891L23.7182 13.7721L22.2012 12.2552Z" id="Shape" fill="#FEF488" stroke="none" />
            <path d="M27.5303 14.0057L28.574 12.962L30.3857 14.7736L29.3419 15.8174L27.5303 14.0057ZM21.6717 8.14364L22.7155 7.09984L24.5272 8.91151L23.4834 9.95531L21.6717 8.14364ZM29.1214 12.4128L30.1651 11.3691L31.9768 13.1808L30.933 14.2245L29.1214 12.4128ZM29.8882 16.3664L30.932 15.3226L32.7437 17.1343L31.6999 18.1781L29.8882 16.3664ZM31.4793 14.7771L32.5231 13.7333L34.3348 15.545L33.291 16.5888L31.4793 14.7771ZM32.2461 18.7198L33.2899 17.676L35.1016 19.4877L34.0578 20.5315L32.2461 18.7198ZM33.8363 17.1305L34.8801 16.0867L36.6918 17.8984L35.648 18.9422L33.8363 17.1305ZM18.546 1.83666L19.5898 0.792857L21.4015 2.60455L20.3577 3.64834L18.546 1.83666Z" id="Group" fill="#7BC3FF" fill-rule="evenodd" stroke="none" />
            <path d="M11.2173 33.433C12.0667 33.131 13.9842 32.169 15.2224 30.8349C15.9615 30.0386 16.3201 29.2597 16.2882 28.5199C16.2386 27.3686 15.7925 26.4071 14.9981 25.7393C14.0288 24.9245 12.8269 24.7381 12.0104 24.8352C11.9733 24.8523 11.8767 24.902 11.6893 25.0302C11.6477 25.0586 11.5486 25.1685 11.4691 25.2569C11.4106 25.3218 11.3513 25.3859 11.2911 25.4493L11.061 26.4786C11.0451 26.5497 11.0094 26.6149 10.958 26.6666C10.7875 26.8399 10.4554 27.2925 10.521 27.5811C10.5659 27.7786 10.9991 28.2787 11.3155 28.6438C11.8854 29.3017 12.2364 29.7285 12.3052 30.107C12.3718 30.4734 12.1472 31.0851 11.6549 32.2984C11.515 32.6433 11.3277 33.1048 11.2173 33.433L11.2173 33.433ZM6.07189 19.9589C6.27502 20.2787 6.40686 20.7319 6.54642 21.2117C6.74277 21.8866 6.96531 22.6516 7.37911 22.9586C7.62067 23.1378 8.0596 23.2592 8.52431 23.3877C9.33942 23.6132 10.3254 23.8858 10.9782 24.6479C11.0735 24.5441 11.1613 24.4552 11.253 24.3925C11.2913 24.3663 11.33 24.3405 11.369 24.3152C11.0012 23.7935 10.221 22.8216 9.3387 22.5333C9.22058 22.4947 9.12824 22.4017 9.09059 22.2832C9.05294 22.1648 9.07456 22.0355 9.1487 21.9358C9.44998 21.5305 9.85107 21.2964 10.3085 21.2588C10.9979 21.2022 11.6623 21.5907 12.0584 21.8849L12.1881 21.6773C12.102 21.2004 11.9391 19.8147 12.723 18.8701C13.0015 18.5345 13.3644 18.2951 13.8066 18.1505C12.7374 17.7379 11.5767 17.511 10.3638 17.511C8.41459 17.511 6.59975 18.096 5.08451 19.099C5.45765 19.3556 5.90581 19.6973 6.07193 19.9588L6.07189 19.9589ZM8.33261 36.1496C8.23967 36.1832 8.07403 36.2658 7.88731 36.3656C8.67754 36.577 9.50743 36.6904 10.3634 36.6904C10.9573 36.6904 11.55 36.6353 12.1337 36.5259C11.2767 36.2104 10.2543 35.8768 9.79938 35.8759C9.36009 35.8749 8.69734 36.0173 8.33261 36.1496L8.33261 36.1496Z" id="Shape" fill="#87FEA4" fill-rule="evenodd" stroke="none" />
            <path d="M6.89006 36.0467C7.1859 35.8746 7.78537 35.5342 8.06974 35.431C8.49961 35.2751 9.25504 35.1106 9.80147 35.1111C10.6852 35.1128 12.8118 35.9547 13.4142 36.2006C17.2118 34.9234 19.9548 31.3297 19.9548 27.1072C19.9548 23.5373 17.9939 20.417 15.0929 18.7659C14.2719 18.7366 13.6745 18.9388 13.3177 19.3689C12.635 20.1915 12.9691 21.6497 12.9727 21.6642C12.9977 21.7656 12.9805 21.8727 12.9252 21.9612L12.4793 22.6748C12.4175 22.7736 12.3145 22.8392 12.1988 22.8535C12.0832 22.8677 11.9673 22.8289 11.8835 22.748C11.6595 22.5334 10.95 21.9858 10.3705 22.0342C10.3018 22.04 10.2364 22.0543 10.174 22.0774C11.1112 22.6287 11.8358 23.6201 12.1237 24.0539C13.3061 23.9717 14.5769 24.3817 15.4951 25.1535C16.4596 25.9643 17.0007 27.1188 17.0599 28.4922C17.1737 31.1331 13.6664 33.2764 11.796 34.0408C11.3232 34.234 11.0287 34.312 10.83 34.312C10.6596 34.312 10.5596 34.2547 10.4777 34.1637C10.2072 33.8632 10.3732 33.4078 10.9389 32.0135C11.1724 31.438 11.5633 30.4747 11.5441 30.2449C11.509 30.0529 11.0411 29.5127 10.7314 29.1553C10.2613 28.6126 9.85526 28.1439 9.76756 27.7579C9.61803 27.1002 10.1198 26.4503 10.3297 26.2136L10.526 25.3356C10.0432 24.6157 9.12996 24.362 8.3186 24.1376C7.78255 23.9894 7.27618 23.8494 6.91896 23.5844C6.29634 23.1224 6.03524 22.2247 5.80484 21.4328C5.68108 21.0073 5.56418 20.6054 5.41997 20.3784C5.32375 20.2269 4.86355 19.88 4.41768 19.5876C2.19898 21.3458 0.773125 24.063 0.773125 27.1072C0.773114 31.171 3.31385 34.6522 6.89006 36.0467L6.89006 36.0467Z" id="Shape" fill="#7BC3FF" stroke="none" />
            <path d="M29.4791 6.85834L29.0805 7.31103L23.7145 12.677L22.7875 11.75L28.2415 6.29592C28.4277 6.10976 28.7305 6.10976 28.9167 6.29592L29.4791 6.85834ZM16.9567 3.42925L18.0002 2.38575L18.9271 3.31263L17.8836 4.35614L16.9567 3.42925ZM23.1162 13.1684L21.9504 14.0506L21.1254 13.2255C21.0898 13.19 21.0875 13.1483 21.0891 13.1266C21.0906 13.105 21.0991 13.064 21.1401 13.0347L22.2031 12.2552L23.1162 13.1684ZM18.5424 1.82601L19.5864 0.782094L20.5133 1.70898L19.4694 2.7529L18.5424 1.82601ZM13.8063 18.1579C13.4989 18.2583 13.2293 18.4051 12.9998 18.599C12.4451 18.4978 11.8742 18.4452 11.291 18.4452C9.37281 18.4452 7.58518 19.0115 6.08419 19.9864C6.08031 19.9795 6.07567 19.9733 6.07182 19.9663C5.90574 19.7045 5.45765 19.363 5.08451 19.1065C6.59945 18.103 8.41489 17.5182 10.364 17.5182C11.5768 17.5182 12.7371 17.7453 13.8063 18.1579L13.8063 18.1579ZM5.41985 20.3757C5.46776 20.4514 5.42762 20.4398 5.3449 20.5117C3.12624 22.27 1.70015 24.9877 1.70015 28.0315C1.70015 30.4402 2.59241 32.6442 4.06484 34.3298C2.04854 32.5715 0.773125 29.9844 0.773125 27.1044C0.773125 24.0606 2.19921 21.3429 4.41787 19.5846C4.86362 19.8774 5.32403 20.2243 5.41985 20.3757L5.41985 20.3757Z" id="Shape" fill="#FFFFFF" fill-rule="evenodd" stroke="none" />
            <path d="M37.2777 17.3819L30.7178 10.8219L31.7436 9.79609C32.2309 9.3088 32.2309 8.51599 31.7436 8.0287L29.4622 5.74734C29.2262 5.51128 28.9124 5.3813 28.5785 5.3813C28.2447 5.3813 27.9309 5.51129 27.6949 5.74734L26.6691 6.77315L20.1091 0.213193C19.9716 0.0756957 19.7888 0 19.5944 0C19.4 0 19.2172 0.0757074 19.0797 0.213193L16.3824 2.91047C16.245 3.04797 16.1693 3.23076 16.1693 3.42517C16.1693 3.61959 16.245 3.80238 16.3824 3.93988L22.9424 10.4998L21.9884 11.4538L20.6822 12.4117C20.4705 12.5669 20.3377 12.8061 20.3176 13.0678C20.2976 13.3296 20.3926 13.5862 20.5782 13.7718L21.8755 15.0691L21.2684 15.6763C21.1176 15.8271 21.1176 16.0717 21.2684 16.2225C21.3438 16.2979 21.4427 16.3356 21.5415 16.3356C21.6404 16.3356 21.7392 16.2979 21.8146 16.2225L22.4218 15.6154L23.7191 16.9127C23.9045 17.0982 24.1617 17.1934 24.4231 17.1733C24.6846 17.1534 24.9243 17.0202 25.0793 16.8087L26.0371 15.5025L26.9911 14.5485L33.5511 21.1085C33.693 21.2504 33.8793 21.3213 34.0657 21.3213C34.2521 21.3213 34.4385 21.2504 34.5804 21.1085L37.2777 18.4112C37.4152 18.2737 37.4909 18.0909 37.4909 17.8965C37.4909 17.7021 37.4152 17.5193 37.2777 17.3818L37.2777 17.3819ZM29.8954 16.3594L30.9393 15.3154L32.7513 17.1274L31.7073 18.1713L29.8954 16.3594ZM31.4865 14.7736L32.5304 13.7297L34.3424 15.5416L33.2984 16.5856L31.4865 14.7736ZM31.9835 13.181L30.9396 14.225L29.1276 12.413L30.1716 11.3691L31.9835 13.181ZM25.0793 8.36285L23.2673 6.55091L24.3112 5.50695L26.1232 7.31891L25.0793 8.36285ZM19.3183 5.78672L20.3622 4.74279L22.1742 6.55475L21.1302 7.5987L19.3183 5.78672ZM20.9085 4.19383L21.9524 3.1499L23.7644 4.96186L22.7204 6.00579L20.9085 4.19383ZM19.5945 0.789269L21.4064 2.60123L20.3625 3.6452L18.5505 1.83324L19.5945 0.789269ZM18.0043 2.37857L19.8162 4.1905L18.7723 5.23446L16.9603 3.4225L18.0043 2.37857ZM21.6771 8.14022L22.721 7.09625L24.533 8.90821L23.489 9.95218L21.6771 8.14022ZM28.2417 6.29224C28.4278 6.10621 28.7305 6.10621 28.9166 6.29224L31.1979 8.57364C31.3839 8.75967 31.3839 9.06242 31.1979 9.24847L25.7437 14.7027L24.2656 13.2246L22.7875 11.7465L28.2417 6.29224ZM24.4557 16.3518C24.4259 16.3925 24.3852 16.4013 24.3636 16.403C24.342 16.4047 24.3005 16.4021 24.2648 16.3664L21.1239 13.2255C21.0882 13.1898 21.0857 13.1483 21.0873 13.1267C21.089 13.1051 21.0978 13.0644 21.1385 13.0346L22.2012 12.2552L23.7182 13.7721L25.2351 15.2891L24.4557 16.3518ZM28.5814 12.9584L30.3934 14.7703L29.3494 15.8143L27.5374 14.0023L28.5814 12.9584ZM34.0662 20.5319L32.2542 18.72L33.2982 17.676L35.1101 19.488L34.0662 20.5319ZM35.6564 18.939L33.8444 17.1271L34.8884 16.0832L36.7003 17.8951L35.6564 18.939ZM23.4861 17.7482C23.3007 17.6427 23.0648 17.7075 22.9593 17.8929L20.5851 22.0661C20.4796 22.2515 20.5444 22.4873 20.7298 22.5928C20.7879 22.626 20.8536 22.6434 20.9204 22.6434C21.0548 22.6434 21.1853 22.5732 21.2565 22.4481L23.6308 18.2749C23.7363 18.0895 23.6715 17.8536 23.4861 17.7482L23.4861 17.7482ZM15.3326 16.9001C15.3995 16.9001 15.4652 16.8827 15.5232 16.8495L19.5989 14.5307C19.7844 14.4252 19.8492 14.1894 19.7437 14.004C19.6382 13.8185 19.4023 13.7537 19.2169 13.8592L15.1412 16.1781C14.9558 16.2836 14.891 16.5194 14.9965 16.7048C15.0677 16.8299 15.1982 16.9001 15.3326 16.9001L15.3326 16.9001ZM10.3633 16.7397C4.64899 16.7397 0 21.3887 0 27.103C0 32.8174 4.64899 37.4664 10.3633 37.4664C16.0777 37.4664 20.7267 32.8174 20.7267 27.103C20.7267 21.3887 16.0777 16.7397 10.3633 16.7397L10.3633 16.7397ZM13.8066 18.1505C13.3644 18.295 13.0016 18.5345 12.7231 18.8701C11.9392 19.8147 12.102 21.2004 12.1882 21.6773L12.0585 21.8849C11.6623 21.5907 10.998 21.2022 10.3086 21.2588C9.85111 21.2964 9.45001 21.5305 9.14874 21.9357C9.07459 22.0355 9.05296 22.1648 9.09062 22.2832C9.12827 22.4016 9.22061 22.4947 9.33873 22.5333C10.2211 22.8216 11.0012 23.7935 11.369 24.3152C11.33 24.3405 11.2914 24.3663 11.253 24.3925C11.1613 24.4552 11.0735 24.544 10.9782 24.6479C10.3254 23.8858 9.33946 23.6131 8.52435 23.3877C8.05962 23.2592 7.62071 23.1378 7.37915 22.9586C6.96535 22.6516 6.7428 21.8866 6.54646 21.2116C6.40689 20.7319 6.27505 20.2787 6.07193 19.9589C5.9058 19.6973 5.45764 19.3557 5.08451 19.099C6.59976 18.0961 8.41459 17.511 10.3638 17.511C11.5767 17.511 12.7374 17.7379 13.8066 18.1505L13.8066 18.1505ZM12.0095 24.8388C12.826 24.7417 14.0279 24.9281 14.9973 25.7429C15.7916 26.4107 16.2377 27.3722 16.2873 28.5235C16.3192 29.2633 15.9607 30.0422 15.2215 30.8385C13.9833 32.1725 12.0658 33.1346 11.2164 33.4366C11.3268 33.1084 11.5141 32.6469 11.654 32.302C12.1463 31.0887 12.3709 30.477 12.3043 30.1107C12.2355 29.7321 11.8845 29.3054 11.3146 28.6475C10.9982 28.2823 10.565 27.7822 10.5201 27.5848C10.4545 27.2962 10.7866 26.8435 10.9571 26.6702C11.0085 26.6185 11.0442 26.5533 11.0601 26.4822L11.2902 25.4529C11.3504 25.3896 11.4097 25.3254 11.4682 25.2605C11.5478 25.1721 11.6468 25.0621 11.6884 25.0337C11.8758 24.9056 11.9725 24.8558 12.0095 24.8388L12.0095 24.8388ZM7.88731 36.3692C8.07403 36.2694 8.23967 36.1868 8.33261 36.1531C8.69734 36.0208 9.36009 35.8785 9.79938 35.8795C10.2543 35.8804 11.2767 36.2139 12.1337 36.5295C11.55 36.6389 10.9573 36.694 10.3634 36.6939C9.50744 36.6939 8.67755 36.5806 7.88733 36.3692L7.88731 36.3692ZM13.4142 36.2006C12.8118 35.9547 10.6852 35.1128 9.80147 35.1111C9.25504 35.1106 8.49961 35.2751 8.06974 35.431C7.78537 35.5342 7.1859 35.8746 6.89006 36.0467C3.31385 34.6522 0.773125 31.171 0.773125 27.1072C0.773125 24.063 2.19898 21.3458 4.41768 19.5876C4.86355 19.88 5.32373 20.2269 5.41997 20.3784C5.56418 20.6054 5.68107 21.0073 5.80484 21.4328C6.03524 22.2247 6.29634 23.1224 6.91896 23.5844C7.27618 23.8494 7.78255 23.9894 8.3186 24.1376C9.12998 24.362 10.0432 24.6157 10.526 25.3356L10.3297 26.2136C10.1198 26.4503 9.61804 27.1001 9.76756 27.7579C9.85526 28.1439 10.2613 28.6126 10.7314 29.1553C11.0411 29.5127 11.509 30.0529 11.5441 30.2449C11.5633 30.4747 11.1724 31.438 10.9389 32.0135C10.3732 33.4078 10.2072 33.8632 10.4777 34.1637C10.5596 34.2547 10.6596 34.312 10.83 34.312C11.0287 34.312 11.3232 34.234 11.796 34.0408C13.6664 33.2765 17.1737 31.1331 17.0599 28.4922C17.0007 27.1188 16.4596 25.9643 15.4951 25.1535C14.5769 24.3817 13.3061 23.9717 12.1237 24.0539C11.8358 23.6201 11.1112 22.6287 10.174 22.0774C10.2364 22.0543 10.3018 22.04 10.3705 22.0342C10.95 21.9858 11.6595 22.5334 11.8835 22.748C11.9673 22.8289 12.0832 22.8677 12.1988 22.8535C12.3145 22.8392 12.4175 22.7736 12.4793 22.6748L12.9252 21.9612C12.9805 21.8727 12.9977 21.7656 12.9727 21.6642C12.9692 21.6497 12.635 20.1915 13.3177 19.3689C13.6745 18.9388 14.2719 18.7366 15.0929 18.7659C17.9939 20.417 19.9548 23.5373 19.9548 27.1072C19.9548 31.3297 17.2118 34.9234 13.4142 36.2006L13.4142 36.2006Z" id="Group" fill="#26396E" fill-rule="evenodd" stroke="none" />
          </g>
        </g>
      </g>
    </g>
  </g>
</svg>