<?xml version="1.0" encoding="utf-8"?>
<svg width="54px" height="54px" viewBox="0 0 54 54" version="1.1" xmlns:xlink="http://www.w3.org/1999/xlink" xmlns="http://www.w3.org/2000/svg">
  <defs>
    <path d="M48.2306 0L48.2306 0L48.2306 37.2721L0 37.2721L0 0L48.2306 0Z" id="path_1" />
    <clipPath id="clip_1">
      <use xlink:href="#path_1" clip-rule="evenodd" fill-rule="evenodd" />
    </clipPath>
  </defs>
  <g id="Group-87">
    <path d="M0 0L54 0L54 54L0 54L0 0Z" id="Rectangle-35" fill="#FFA2A2" fill-opacity="0" fill-rule="evenodd" stroke="none" />
    <g id="Group-83" transform="translate(2.7695312 9)">
      <g id="Group">
        <g id="Frame 6" clip-path="url(#clip_1)">
          <path d="M48.2306 0L48.2306 0L48.2306 37.2721L0 37.2721L0 0L48.2306 0Z" id="Frame-6" fill="none" stroke="none" />
          <g id="Group" transform="translate(0.96334755 3.6042626)">
            <path d="M41.5748 21.6322L36.3563 20.1742L32.3435 16.0716L31.8129 15.961L32.1602 15.7498C32.7486 15.3878 33.1055 14.6438 33.1055 13.5779C33.1055 13.226 33.0573 12.874 32.9898 12.512L35.7196 10.8529C36.0379 10.9233 36.308 10.873 36.5202 10.7222C36.5106 10.7423 36.501 10.7524 36.4817 10.7624L37.2534 10.2898C37.6006 10.0787 37.8128 9.63622 37.8128 9.01279C37.8128 7.74582 36.964 6.21741 35.9125 5.58393C35.382 5.27222 34.9093 5.24205 34.5621 5.44316L33.8193 5.89564C33.8097 5.89564 33.8097 5.9057 33.8 5.9057C33.5878 6.04647 33.4238 6.25764 33.3274 6.55929L30.5589 8.23853C30.3456 8.0498 30.1164 7.88153 29.8741 7.73576C28.977 7.20283 28.157 7.1425 27.5686 7.50449L26.2375 8.30892C26.4111 8.19831 26.604 8.13797 26.8162 8.10781C26.1796 8.20836 25.7069 8.67091 25.4658 9.40494L23.7681 10.4306L19.6588 6.47885L14.4403 5.02083L10.4275 0.918268L6.05777 0.00323542L0 3.67342L0.144692 4.29685L4.36005 5.17166L8.36319 9.26417L13.5914 10.7222L17.3341 14.332L16.6299 14.7544C16.1862 14.684 15.7811 14.7343 15.4531 14.9354L14.1316 15.7398L14.1123 15.7498C13.5432 16.1118 13.1766 16.8559 13.1766 17.9117C13.1766 18.7564 13.3985 19.6614 13.7747 20.5261L13.3888 20.7574C13.331 20.7172 13.2827 20.6669 13.2152 20.6367C13.0223 20.5362 12.8004 20.4758 12.5689 20.4758C12.2892 20.4758 12.0384 20.5563 11.8165 20.697C11.3728 20.134 10.8712 19.6412 10.3214 19.3094C8.64293 18.2938 7.26354 19.1184 7.25389 21.1395C7.25389 23.1606 8.62364 25.6342 10.3021 26.6498C11.9901 27.6654 13.3695 26.8408 13.3792 24.8298C13.3792 24.3873 13.302 23.9248 13.1863 23.4623C13.7071 23.2109 14.0641 22.6679 14.0641 22.0445L14.0641 22.0042L14.4499 21.7629C14.9997 22.5975 15.675 23.3014 16.4081 23.7539C17.2955 24.2868 18.0961 24.3371 18.6749 24.0153L18.7038 23.9952L18.7135 23.9952L20.0447 23.1807C20.4209 22.9494 20.6909 22.5372 20.8453 21.9942L24.2793 19.9127L26.2664 20.3351L30.2696 24.4175L35.5074 25.8856L40.1086 30.3099L46.1664 26.6498L46.3014 26.1872L41.5748 21.6322ZM11.6906 23.2994C11.8353 23.41 11.9993 23.4904 12.1729 23.5407C12.1826 23.6312 12.1922 23.7217 12.1922 23.8122C12.1922 24.9082 11.4398 25.3607 10.5138 24.8077C9.59739 24.2547 8.84499 22.8972 8.85464 21.8012C8.85464 20.6951 9.60704 20.2526 10.5234 20.8057C10.7742 20.9465 10.9961 21.1476 11.2083 21.3889C11.1504 21.5096 11.1118 21.6302 11.0925 21.7609C10.9768 21.6403 10.861 21.5297 10.7356 21.4593C10.1955 21.1375 9.76138 21.3989 9.75173 22.0425C9.75173 22.686 10.1858 23.4703 10.726 23.7921C11.2372 24.1038 11.6424 23.8726 11.6906 23.2994L11.6906 23.2994ZM11.3437 22.9204C11.3437 22.9505 11.363 22.9807 11.363 23.0109C11.3534 23.4231 11.0736 23.584 10.7264 23.3829C10.3791 23.1717 10.0994 22.669 10.0994 22.2567C10.109 21.8344 10.3888 21.6634 10.736 21.8746C10.8711 21.9651 10.9965 22.1059 11.1026 22.2567C11.1315 22.5081 11.2183 22.7293 11.3437 22.9204L11.3437 22.9204ZM10.3017 26.2269C8.80659 25.332 7.60082 23.14 7.60082 21.3501C7.61047 19.5502 8.82588 18.8262 10.321 19.7312C10.784 20.0027 11.1988 20.4049 11.575 20.8675C11.4979 20.9479 11.4303 21.0284 11.3628 21.1088C11.112 20.8172 10.8323 20.5658 10.5332 20.3848C9.41429 19.7111 8.50756 20.2541 8.50756 21.5915C8.49791 22.9188 9.40465 24.5578 10.514 25.2214C11.6329 25.8951 12.5396 25.3521 12.5396 24.0248C12.5396 23.8841 12.53 23.7433 12.5107 23.5925C12.53 23.5925 12.5493 23.6025 12.5686 23.6025C12.6747 23.6025 12.7904 23.5925 12.8965 23.5623C12.9737 23.9243 13.0316 24.2762 13.0316 24.6181C13.0219 26.4079 11.8065 27.1319 10.3017 26.2269L10.3017 26.2269Z" id="Shape" fill="#474B59" fill-rule="evenodd" stroke="none" />
            <path d="M0.00242657 3.67019L6.0602 0L10.426 0.915032L4.36826 4.58522L0.00242657 3.67019Z" id="Shape" fill="#5B5E71" stroke="none" />
            <path d="M9.50858 1.06904L7.41923 2.33701L6.33501 2.99161L6.32825 2.99865L5.48229 3.50845L4.31221 4.21936L2.2354 3.77693L2.21611 3.77693L0.919669 3.50845L1.03253 3.44008L2.12254 2.77844L5.13889 0.951389L6.117 0.359132L7.86295 0.725145L9.50858 1.06904Z" id="Shape" fill="#576CFB" stroke="none" />
            <path d="M4.36782 4.58581L10.4256 0.915625L14.4403 5.01819L8.38254 8.68837L4.36782 4.58581Z" id="Shape" fill="#474B59" stroke="none" />
            <path d="M13.8995 4.94372L10.587 6.9568L9.05324 7.87987L8.50341 8.21773L8.43106 8.25896L8.08766 7.90702L4.90733 4.65413L8.21981 2.6491L8.64906 2.38767L9.20468 2.05584L10.3748 1.34594L10.7191 1.69083L13.8995 4.94372Z" id="Shape" fill="#576CFB" stroke="none" />
            <path d="M8.38137 8.68833L14.4391 5.01814L19.6577 6.47817L13.5999 10.1484L8.38137 8.68833Z" id="Shape" fill="#5B5E71" stroke="none" />
            <path d="M18.8051 6.59742L17.2839 7.51346L16.2923 8.11979L15.5119 8.58837L13.5547 9.77489L10.0378 8.78948L9.23714 8.56826L9.568 8.36816L10.5596 7.76182L13.3107 6.09264L14.4875 5.38375L16.5904 5.97701L18.8051 6.59742Z" id="Shape" fill="#576CFB" stroke="none" />
            <path d="M18.3314 14.703L24.3892 11.0328L24.2541 11.4873L18.1944 15.1575L18.3314 14.703Z" id="Shape" fill="#363A44" stroke="none" />
            <path d="M13.6001 10.1475L19.6579 6.47732L24.3903 11.0324L18.3325 14.7026L13.6001 10.1475Z" id="Shape" fill="#474B59" stroke="none" />
            <path d="M23.8368 10.9675L19.9156 13.3456L18.5073 14.1933L18.3751 14.2757L17.9121 13.8283L17.4231 13.3597L14.1501 10.2094L16.7691 8.62464L17.1588 8.38935L17.6613 8.07964L19.0697 7.23198L19.6118 6.90116L23.8368 10.9675Z" id="Shape" fill="#576CFB" stroke="none" />
            <path d="M4.36827 4.58501L8.38202 8.68757L13.6006 10.1466L18.332 14.7016L18.196 15.1561L13.5909 10.7238L8.35983 9.26173L4.35765 5.17224L0.144225 4.2924L0.00242657 3.66897L4.36827 4.58501Z" id="Shape" fill="#3F434F" stroke="none" />
            <path d="M9.50832 1.07186L7.41897 2.33984L2.12325 2.78227L5.13863 0.954215L7.86269 0.72797L9.50832 1.07186ZM6.32922 2.99924L5.48229 3.50904L2.2354 3.77852L2.21611 3.77852L0.919669 3.50904L1.03253 3.44067L6.32922 2.99924ZM10.7184 1.69184L10.5873 6.9568L9.05353 7.87987L9.20497 2.05584L10.375 1.34594L10.7184 1.69184ZM8.64916 2.38774L8.50447 8.21982L8.43115 8.26004L8.08775 7.90811L8.2199 2.64918L8.64916 2.38774ZM19.9157 13.348L18.5073 14.1957L17.6614 8.08207L19.0697 7.23441L19.9157 13.348ZM17.9123 13.8284L17.4232 13.3598L16.7692 8.62374L17.1589 8.38945L17.9123 13.8284ZM18.8058 6.60048L17.2846 7.51652L10.5612 7.76489L13.3104 6.09571L16.5901 5.97906L18.8058 6.60048ZM16.2941 8.12415L15.5128 8.59273L10.0386 8.79383L9.23794 8.57262L9.56881 8.37252L16.2941 8.12415Z" id="Group" fill="#748BFD" fill-rule="evenodd" stroke="none" />
            <path d="M33.7786 5.91874C34.1259 5.70858 34.6043 5.74076 35.1339 6.06052C36.1873 6.69098 36.9956 8.22945 36.9956 9.48938C36.9898 10.1148 36.8172 10.5522 36.4796 10.7563L37.2551 10.2837C37.5975 10.0746 37.8098 9.6382 37.8098 9.00773C37.8146 7.74679 36.9676 6.21839 35.9143 5.58289C35.3857 5.26816 34.9063 5.23598 34.559 5.44614L33.7786 5.91874Z" id="Shape" fill="#5B5E71" stroke="none" />
            <path d="M35.1355 6.05742C36.1879 6.69091 37.0348 8.22334 37.0309 9.48327C37.028 10.7432 36.1753 11.25 35.1229 10.6165C34.0715 9.98302 33.2217 8.4526 33.2246 7.19267C33.2275 5.93274 34.0831 5.42394 35.1355 6.05742L35.1355 6.05742Z" id="Shape" fill="#474B59" stroke="none" />
            <path d="M27.5472 10.0572C27.8559 9.87018 28.2813 9.89834 28.751 10.1829C29.6867 10.743 30.4382 12.1045 30.4382 13.2236C30.4333 13.7787 30.2452 14.1708 29.9462 14.3528L36.1535 10.5901C36.4583 10.4041 36.6454 10.017 36.6454 9.45691C36.6503 8.33775 35.8988 6.98029 34.9632 6.41619C34.4934 6.13665 34.069 6.10849 33.7603 6.29552L27.5472 10.0572Z" id="Shape" fill="#D4DAE8" stroke="none" />
            <path d="M28.753 10.1808C29.6877 10.7439 30.4391 12.1044 30.4362 13.2225C30.4324 14.3417 29.6761 14.7911 28.7424 14.228C27.8086 13.6649 27.0543 12.3075 27.0562 11.1893C27.0582 10.0712 27.8183 9.61869 28.754 10.1808L28.753 10.1808Z" id="Shape" fill="#CAD0DD" stroke="none" />
            <path d="M26.2369 8.30993C26.8301 7.95196 27.6452 8.00526 28.5471 8.55126C30.3413 9.62517 31.7844 12.2385 31.7844 14.3874C31.7757 15.4532 31.4149 16.2044 30.839 16.5533L32.1606 15.7488C32.7451 15.3899 33.1059 14.6468 33.1059 13.5729C33.1146 11.4251 31.6725 8.82074 29.8773 7.73678C28.9754 7.19983 28.1603 7.14654 27.5671 7.5045L26.2369 8.30993Z" id="Shape" fill="#5B5E71" stroke="none" />
            <path d="M28.5509 8.5463C30.3442 9.62523 31.7863 12.2366 31.7805 14.3844C31.7747 16.5322 30.3229 17.394 28.5297 16.315C26.7365 15.2361 25.2886 12.6287 25.2954 10.4809C25.3021 8.33312 26.7587 7.46736 28.5509 8.5463L28.5509 8.5463Z" id="Shape" fill="#474B59" stroke="none" />
            <path d="M15.6198 15.3619C16.1455 15.0431 16.87 15.0914 17.6706 15.5761C19.2641 16.5293 20.5451 18.8501 20.5451 20.7576C20.5374 21.7028 20.2172 22.3704 19.7059 22.6812L30.2839 16.2699C30.8028 15.9521 31.1231 15.2925 31.1231 14.3393C31.1308 12.4318 29.8498 10.1191 28.2562 9.15778C27.4556 8.68115 26.7322 8.63289 26.2055 8.95064L15.6198 15.3619Z" id="Shape" fill="#D4DAE8" stroke="none" />
            <path d="M17.6744 15.5735C19.266 16.5307 20.547 18.8495 20.5413 20.756C20.5364 22.6624 19.2467 23.4287 17.6551 22.4704C16.0635 21.5121 14.7777 19.1974 14.7835 17.2909C14.7893 15.3844 16.0828 14.6152 17.6744 15.5735L17.6744 15.5735Z" id="Shape" fill="#CAD0DD" stroke="none" />
            <path d="M14.0984 15.7597C14.6906 15.4008 15.527 15.438 16.4289 15.983C18.223 17.0569 19.6661 19.6712 19.6661 21.8191C19.6574 22.8849 19.2513 23.6612 18.6754 24.0111L20.0433 23.1795C20.6269 22.8216 20.9886 22.0785 20.9886 21.0056C20.9963 18.8568 19.5542 16.2524 17.7591 15.1695C16.8572 14.6315 16.0421 14.5782 15.4498 14.9362L14.0984 15.7597Z" id="Shape" fill="#5B5E71" stroke="none" />
            <path d="M16.4319 15.9783C18.2251 17.0572 19.6672 19.6686 19.6614 21.8154C19.6556 23.9622 18.2039 24.8249 16.4106 23.746C14.6184 22.6671 13.1695 20.0597 13.1763 17.9119C13.183 15.7641 14.6396 14.8993 16.4319 15.9783L16.4319 15.9783Z" id="Shape" fill="#525566" stroke="none" />
            <path d="M17.0482 23.0653C15.392 22.0699 14.0492 19.6486 14.055 17.6717C14.0599 16.9517 14.2412 16.4107 14.5692 16.093C13.9962 16.2981 13.6673 16.9467 13.6673 17.917C13.6624 19.8939 15.0003 22.3102 16.6566 23.3067C17.0878 23.5661 17.5045 23.7039 17.8662 23.7039C18.1845 23.7039 18.4498 23.5973 18.6601 23.3921C18.5311 23.4387 18.3953 23.4615 18.2588 23.4595C17.8961 23.4595 17.4794 23.3208 17.0482 23.0653L17.0482 23.0653Z" id="Shape" fill="#5B5E71" stroke="none" />
            <path d="M16.1875 16.4215C15.7553 16.166 15.3386 16.0283 14.9759 16.0283C14.8293 16.0283 14.6923 16.0484 14.5698 16.0947C14.2418 16.4114 14.0605 16.9524 14.0547 17.6733C14.0499 19.6492 15.3926 22.0705 17.0489 23.066C17.48 23.3214 17.8967 23.4602 18.2594 23.4602C18.4061 23.4602 18.5392 23.4401 18.6607 23.3938C18.9887 23.0821 19.171 22.5351 19.171 21.8151C19.1758 19.8382 17.8379 17.4169 16.1865 16.4214L16.1875 16.4215Z" id="Shape" fill="#474B59" stroke="none" />
            <path d="M16.3235 18.9773C16.7161 19.2126 17.0305 19.7837 17.0296 20.2523C17.0286 20.7209 16.7112 20.9099 16.3196 20.6746C15.927 20.4383 15.6106 19.8692 15.6125 19.3996C15.6145 18.93 15.9318 18.741 16.3235 18.9773L16.3235 18.9773Z" id="Shape" fill="#F34858" stroke="none" />
            <path d="M12.1498 21.5029C12.2386 21.4486 12.3611 21.4567 12.4952 21.5391C12.7633 21.7 12.9794 22.0891 12.9794 22.4109C12.9775 22.5698 12.9234 22.6824 12.8376 22.7337L16.5706 20.4913C16.6584 20.437 16.7124 20.3264 16.7124 20.1656C16.7134 19.8448 16.4983 19.4556 16.2301 19.2938C16.0951 19.2133 15.9735 19.2053 15.8848 19.2596L12.1498 21.5029Z" id="Shape" fill="#D4DAE8" stroke="none" />
            <path d="M12.4969 21.5396C12.765 21.7004 12.9792 22.0906 12.9792 22.4114C12.9792 22.7331 12.7612 22.8608 12.494 22.6999C12.2258 22.5391 12.0097 22.1489 12.0107 21.8281C12.0107 21.5074 12.2287 21.3787 12.4969 21.5396L12.4969 21.5396Z" id="Shape" fill="#CAD0DD" stroke="none" />
            <path d="M13.2157 20.6323C13.4279 20.8988 13.5495 21.2356 13.5495 21.6077C13.5495 22.4724 12.8781 23.1713 12.0505 23.1713C11.8199 23.1713 11.5942 23.115 11.3984 23.0134C11.6733 23.3704 12.0949 23.6006 12.5656 23.6006C13.2634 23.5989 13.8678 23.0955 14.0234 22.3863C14.179 21.6772 13.8445 20.95 13.2167 20.6323L13.2157 20.6323Z" id="Shape" fill="#EFAC41" stroke="none" />
            <path d="M13.5498 21.608C13.5498 21.2349 13.4273 20.8981 13.217 20.6326C12.7529 20.3988 12.206 20.4301 11.7692 20.7154C11.3323 21.0007 11.0667 21.4999 11.066 22.0373C11.066 22.4094 11.1885 22.7462 11.3988 23.0127C11.8629 23.2464 12.4098 23.2152 12.8466 22.9299C13.2835 22.6446 13.5491 22.1453 13.5498 21.608L13.5498 21.608Z" id="Shape" fill="#F9BB4A" stroke="none" />
            <path d="M10.733 21.455C11.2713 21.7788 11.7073 22.5671 11.7063 23.2117C11.7044 23.8552 11.2645 24.1166 10.7272 23.7928C10.1899 23.4691 9.75587 22.6827 9.75684 22.0382C9.75877 21.3947 10.1957 21.1312 10.733 21.455L10.733 21.455ZM10.7278 23.3734C11.0751 23.5826 11.3577 23.4147 11.3587 23.0024C11.3596 22.5861 11.0789 22.0793 10.7317 21.8712C10.3873 21.664 10.1047 21.831 10.1047 22.2473C10.1027 22.6595 10.3844 23.1663 10.7278 23.3734" id="Shape" fill="#75CA75" fill-rule="evenodd" stroke="none" />
            <path d="M10.3253 19.3105C12.0143 20.3271 13.3831 22.7987 13.3783 24.8228C13.3725 26.8419 11.995 27.6604 10.305 26.6439C8.61888 25.6283 7.25009 23.1577 7.25588 21.1376C7.26166 19.1145 8.63913 18.296 10.3253 19.3105L10.3253 19.3105ZM10.3057 26.2292C11.8047 27.1301 13.0259 26.4052 13.0308 24.6143C13.0356 22.8194 11.8221 20.6294 10.324 19.7274C8.8289 18.8275 7.6077 19.5525 7.60287 21.3473C7.59805 23.1382 8.81057 25.3292 10.3067 26.2282" id="Shape" fill="#75CA75" fill-rule="evenodd" stroke="none" />
            <path d="M10.5286 20.3808C11.6428 21.0505 12.5466 22.6835 12.5428 24.0178C12.5399 25.3482 11.6293 25.8881 10.5161 25.2184C9.40487 24.5498 8.50006 22.9168 8.50392 21.5865C8.50778 20.2531 9.41837 19.7122 10.5296 20.3798L10.5286 20.3808ZM10.5167 24.803C11.4388 25.358 12.1922 24.9116 12.1951 23.8095C12.1989 22.7034 11.4504 21.356 10.5273 20.801C9.60799 20.2479 8.85462 20.6904 8.85173 21.7965C8.84787 22.8985 9.59641 24.2499 10.5167 24.803" id="Shape" fill="#75CA75" fill-rule="evenodd" stroke="none" />
            <path d="M21.916 18.8249L27.9737 15.1547L32.3396 16.0698L26.2818 19.7399L21.916 18.8249Z" id="Shape" fill="#5B5E71" stroke="none" />
            <path d="M31.4221 16.227L29.3328 17.495L28.2485 18.1496L28.2418 18.1566L27.3949 18.6664L26.2248 19.3773L24.1489 18.9349L24.1296 18.9349L22.8332 18.6664L22.9451 18.598L24.0361 17.9364L27.0514 16.1094L28.0296 15.5171L29.7755 15.8821L31.4221 16.227Z" id="Shape" fill="#576CFB" stroke="none" />
            <path d="M26.2814 19.7438L32.3391 16.0736L36.3538 20.1762L30.2961 23.8463L26.2814 19.7438Z" id="Shape" fill="#474B59" stroke="none" />
            <path d="M35.8122 20.1017L32.4997 22.1148L30.966 23.0378L30.4161 23.3757L30.3438 23.4169L30.0004 23.065L26.82 19.8121L30.1325 17.8071L30.5627 17.5456L31.1174 17.2138L32.2884 16.5039L32.6318 16.8488L35.8122 20.1017Z" id="Shape" fill="#576CFB" stroke="none" />
            <path d="M30.2957 23.8431L36.3535 20.1729L41.572 21.6319L35.5143 25.3021L30.2957 23.8431Z" id="Shape" fill="#5B5E71" stroke="none" />
            <path d="M40.7187 21.7554L39.1984 22.6714L38.2068 23.2778L37.4255 23.7463L35.4692 24.9329L31.9513 23.9474L31.1507 23.7262L31.4815 23.5261L32.4741 22.9198L35.2242 21.2506L36.4011 20.5417L38.5039 21.135L40.7187 21.7554Z" id="Shape" fill="#576CFB" stroke="none" />
            <path d="M40.2446 29.8577L46.3033 26.1875L46.1673 26.643L40.1096 30.3132L40.2446 29.8577Z" id="Shape" fill="#363A44" stroke="none" />
            <path d="M35.5128 25.3022L41.5706 21.632L46.303 26.1871L40.2452 29.8573L35.5128 25.3022Z" id="Shape" fill="#474B59" stroke="none" />
            <path d="M45.7503 26.1255L41.8291 28.5036L40.4208 29.3512L40.2887 29.4337L39.8256 28.9862L39.3366 28.5176L36.0637 25.3673L38.6816 23.7826L39.0713 23.5473L39.5739 23.2376L40.9822 22.3899L41.5243 22.0591L45.7503 26.1255Z" id="Shape" fill="#576CFB" stroke="none" />
            <path d="M26.2808 19.7397L30.2955 23.8423L35.5141 25.3013L40.2455 29.8564L40.1086 30.3109L35.5035 25.8785L30.2724 24.4165L26.2712 20.327L22.0578 19.4471L21.916 18.8237L26.2808 19.7397Z" id="Shape" fill="#3F434F" stroke="none" />
            <path d="M31.4219 16.2276L29.3325 17.4956L24.0368 17.938L27.0512 16.1099L29.7753 15.8827L31.4219 16.2276ZM28.2418 18.1572L27.3949 18.667L24.1489 18.9365L24.1296 18.9365L22.8332 18.667L22.9451 18.5986L28.2418 18.1572ZM32.6313 16.8456L32.4992 22.1115L30.9654 23.0346L31.1169 17.2106L32.2879 16.5007L32.6313 16.8456ZM30.5628 17.5425L30.4172 23.3745L30.3439 23.4148L30.0005 23.0628L30.1326 17.8039L30.5628 17.5425ZM41.8294 28.5028L40.421 29.3504L39.5741 23.2368L40.9824 22.3891L41.8294 28.5028ZM39.826 28.9863L39.3369 28.5178L38.6819 23.7817L39.0716 23.5474L39.826 28.9863ZM40.7185 21.7552L39.1983 22.6712L32.474 22.9196L35.2241 21.2504L38.5037 21.1338L40.7185 21.7552ZM38.206 23.2789L37.4247 23.7475L31.9505 23.9486L31.1499 23.7273L31.4807 23.5272L38.206 23.2789Z" id="Group" fill="#748BFD" fill-rule="evenodd" stroke="none" />
          </g>
        </g>
      </g>
    </g>
  </g>
</svg>