<?xml version="1.0" encoding="utf-8"?>
<svg width="29px" height="29px" viewBox="0 0 29 29" version="1.1" xmlns:xlink="http://www.w3.org/1999/xlink" xmlns="http://www.w3.org/2000/svg">
  <defs>
    <path d="M0 0L29 0L29 29L0 29L0 0Z" id="path_1" />
    <clipPath id="clip_1">
      <use xlink:href="#path_1" />
    </clipPath>
  </defs>
  <g id="svg 20" clip-path="url(#clip_1)">
    <path d="M0 0L29 0L29 29L0 29L0 0Z" id="svg-20" fill="none" fill-rule="evenodd" stroke="none" />
    <path d="M3.62343 17.0218C3.89511 17.0218 4.16408 16.9005 4.34157 16.6686L4.73551 16.157C5.3388 19.7203 7.83717 22.671 11.2522 23.8537C15.5173 25.3411 20.2481 23.7478 22.7443 19.9831C23.0206 19.566 22.9065 19.0039 22.4893 18.7275C22.0722 18.4512 21.51 18.5653 21.2337 18.9824C19.1947 22.0571 15.3307 23.3582 11.8472 22.143C9.00187 21.1567 6.94135 18.6697 6.50143 15.6906L7.27663 16.2874C7.67299 16.5925 8.24164 16.5185 8.54673 16.1221C8.85182 15.7257 8.77783 15.1571 8.38146 14.852L6.23428 13.1993C5.7842 12.8524 5.14394 12.6577 4.73642 13.1893L2.9071 15.5647C2.69655 15.8378 2.65954 16.2068 2.81167 16.5163C2.9638 16.8257 3.27861 17.0218 3.62343 17.0218L3.62343 17.0218ZM6.49658 10.2646C6.91225 10.5408 7.47463 10.4267 7.75264 10.0102C9.7927 6.93681 13.6557 5.6361 17.1392 6.84961C19.9845 7.83584 22.045 10.3229 22.485 13.302L21.7098 12.7052C21.3134 12.4001 20.7448 12.4741 20.4396 12.8705C20.1346 13.2669 20.2086 13.8355 20.6049 14.1406L22.7521 15.7933C23.2104 16.1456 23.8361 16.343 24.25 15.8033L26.0793 13.4279C26.3841 13.0318 26.3101 12.4635 25.914 12.1587C25.5179 11.8538 24.9497 11.9278 24.6448 12.324L24.2509 12.8356C23.6476 9.27232 21.1492 6.32156 17.7341 5.13893C13.4693 3.65268 8.73939 5.24534 6.24211 9.00856C5.96622 9.42581 6.08005 9.98765 6.49658 10.2646L6.49658 10.2646Z" id="Group" fill="#000000" fill-rule="evenodd" stroke="none" />
  </g>
</svg>