<?xml version="1.0" encoding="utf-8"?>
<svg width="54px" height="54px" viewBox="0 0 54 54" version="1.1" xmlns:xlink="http://www.w3.org/1999/xlink" xmlns="http://www.w3.org/2000/svg">
  <defs>
    <path d="M42 0L42 0L42 42L0 42L0 0L42 0Z" id="path_1" />
    <clipPath id="clip_1">
      <use xlink:href="#path_1" clip-rule="evenodd" fill-rule="evenodd" />
    </clipPath>
  </defs>
  <g id="Group-86">
    <path d="M0 0L54 0L54 54L0 54L0 0Z" id="Rectangle-34" fill="#FFA2A2" fill-opacity="0" fill-rule="evenodd" stroke="none" />
    <g id="Group-82" transform="translate(6 6)">
      <g id="Group">
        <g id="Frame 4" clip-path="url(#clip_1)">
          <path d="M42 0L42 0L42 42L0 42L0 0L42 0Z" id="Frame-4" fill="none" stroke="none" />
          <g id="Group" transform="translate(0 0.022372158)">
            <path d="M17.1634 18.4843C17.0894 18.4843 17.016 18.4711 16.9466 18.4454L12.5374 17.6755C12.4109 17.6534 12.2942 17.5928 12.2033 17.5019L10.7931 16.0917C10.5549 15.847 10.5576 15.4562 10.7991 15.2147C11.0406 14.9732 11.4313 14.9706 11.6761 15.2088L12.9467 16.4793L16.3931 17.081L15.7917 13.6518L14.7252 12.5854C14.6081 12.4683 14.5423 12.3095 14.5423 12.1439C14.5423 11.9783 14.6081 11.8195 14.7252 11.7024C14.8423 11.5853 15.0011 11.5195 15.1667 11.5195C15.3323 11.5195 15.4911 11.5853 15.6082 11.7024L16.8141 12.9083C16.9049 12.999 16.9655 13.1155 16.9876 13.2419L17.7577 17.6334C17.843 17.8628 17.7864 18.1208 17.613 18.2935L17.604 18.3024C17.487 18.4189 17.3286 18.4843 17.1634 18.4843L17.1634 18.4843ZM26.6037 31.5973C26.4381 31.5976 26.2792 31.5318 26.1622 31.4145L24.5602 29.8126C24.4726 29.7249 24.413 29.6131 24.389 29.4914L23.5037 24.9823C23.4117 24.7503 23.4667 24.4857 23.6436 24.3096L23.6526 24.3007C23.8286 24.1255 24.0917 24.0712 24.3226 24.1625L28.8493 25.0476C28.9712 25.0714 29.0832 25.1311 29.1711 25.2188L30.5455 26.5933C30.7837 26.838 30.7811 27.2288 30.5396 27.4703C30.298 27.7118 29.9073 27.7145 29.6625 27.4763L28.4228 26.2365L24.8868 25.5452L25.5778 29.0639L27.0452 30.5313C27.1623 30.6483 27.2281 30.8072 27.2281 30.9728C27.2281 31.1384 27.1623 31.2972 27.0452 31.4142C26.9283 31.5317 26.7694 31.5976 26.6037 31.5973L26.6037 31.5973Z" id="Shape" fill="#A79BA7" fill-rule="evenodd" stroke="none" />
            <path d="M34.4306 7.57811C34.3136 7.46082 34.1549 7.39478 33.9893 7.39453C33.8237 7.39429 33.6648 7.45985 33.5475 7.5768L29.5489 11.5633C29.3048 11.8068 29.3043 12.202 29.5478 12.4462C29.7912 12.6903 30.1864 12.691 30.4307 12.4476L34.4293 8.46115C34.6734 8.21764 34.674 7.82231 34.4306 7.57808L34.4306 7.57811ZM17.0251 30.6196L11.2899 24.9108C11.1412 24.763 11.0576 24.5621 11.0576 24.3525C11.0576 24.1429 11.1412 23.9419 11.2899 23.7942L19.8709 15.2472L26.7272 22.0718L18.1454 30.6196C17.836 30.9276 17.3345 30.9276 17.0251 30.6196L17.0251 30.6196Z" id="Shape" fill="#7A6D79" fill-rule="evenodd" stroke="none" />
            <path d="M15.8358 29.4362L17.0256 30.6206C17.335 30.9287 17.8365 30.9287 18.1459 30.6206L26.7277 22.0729L24.9681 20.3214L15.8358 29.4362Z" id="Shape" fill="#685E68" stroke="none" />
            <path d="M26.7265 22.0728L19.8702 15.2482L20.0646 11.242L30.7512 21.8793L26.7265 22.0728Z" id="Shape" fill="#FD6930" stroke="none" />
            <path d="M30.7516 21.8762L20.065 11.2389L23.3208 7.99805L34.0073 18.6354L30.7516 21.8762Z" id="Shape" fill="#A79BA7" stroke="none" />
            <path d="M21.2237 0.671165C21.2237 6.13502 23.3058 10.1005 27.6009 14.3758C31.8957 18.6508 36.5036 20.7173 41.3753 20.7173C33.7711 13.1482 28.8279 8.24027 21.2237 0.671165L21.2237 0.671165Z" id="Shape" fill="#F3F0F3" stroke="none" />
            <path d="M37.5532 16.9154C32.9497 16.7828 28.5851 14.7859 24.5012 10.8058C25.3618 11.9988 26.3943 13.1761 27.6017 14.378C31.8964 18.6529 36.5044 20.7195 41.3761 20.7195C41.3762 20.7212 41.3762 20.7212 41.3762 20.7212L37.5532 16.9154Z" id="Shape" fill="#E2DEE2" stroke="none" />
            <path d="M33.1602 7.52353C33.1602 6.79507 33.7534 6.20455 34.4853 6.20455C35.2171 6.20455 35.8103 6.79507 35.8103 7.52353C35.8103 8.25198 35.2171 8.84251 34.4853 8.84251C33.7534 8.84251 33.1602 8.25198 33.1602 7.52353Z" id="Oval" fill="#FD6930" fill-rule="evenodd" stroke="none" />
            <path d="M17.7382 21.7621C17.6214 21.6447 17.4627 21.5785 17.2971 21.5781C17.1315 21.5777 16.9725 21.6431 16.8551 21.76L12.4915 26.1024C12.2508 26.3463 12.2516 26.7385 12.4933 26.9814C12.735 27.2243 13.1273 27.227 13.3723 26.9876L17.736 22.6452C17.8534 22.5284 17.9196 22.3697 17.92 22.2041C17.9204 22.0385 17.855 21.8795 17.7382 21.7621L17.7382 21.7621ZM20.1888 24.2044C20.072 24.087 19.9133 24.0208 19.7477 24.0204C19.5821 24.02 19.4231 24.0854 19.3057 24.2023L14.9421 28.5447C14.7015 28.7886 14.7024 29.1808 14.944 29.4236C15.1857 29.6665 15.5779 29.6693 15.8229 29.4299L20.1866 25.0875C20.4311 24.8442 20.432 24.4489 20.1888 24.2044L20.1888 24.2044Z" id="Group" fill="#A79BA7" fill-rule="evenodd" stroke="none" />
            <path d="M13.8689 31.6345L10.2699 28.0521C10.1212 27.9043 10.0376 27.7034 10.0376 27.4938C10.0376 27.2842 10.1212 27.0832 10.2699 26.9355L11.7976 25.4148L16.5176 30.113L14.9892 31.6345C14.6797 31.9426 14.1783 31.9426 13.8689 31.6345L13.8689 31.6345Z" id="Shape" fill="#FD6930" stroke="none" />
            <path d="M36.2874 41.9514L24.3223 30.0467L29.4103 24.9822L41.3753 36.8869L36.2874 41.9514ZM11.9652 17.7373L0 5.83264L5.08791 0.768111L17.0531 12.6728L11.9652 17.7373Z" id="Group" fill="#8AC9FE" fill-rule="evenodd" stroke="none" />
            <path d="M30.3113 36.5872C30.0587 36.5873 29.8309 36.4352 29.7343 36.2018C29.6376 35.9685 29.6911 35.6999 29.8698 35.5214L34.856 30.5352C34.9731 30.4181 35.1319 30.3523 35.2975 30.3523C35.4631 30.3523 35.6219 30.4181 35.739 30.5352C35.8561 30.6523 35.9219 30.8111 35.9219 30.9767C35.9219 31.1423 35.8561 31.3011 35.739 31.4182L30.7527 36.4044C30.6358 36.5216 30.4769 36.5874 30.3113 36.5872L30.3113 36.5872ZM5.97314 12.3834C5.72057 12.3835 5.49283 12.2314 5.39617 11.998C5.29951 11.7647 5.35299 11.4961 5.53165 11.3175L10.5863 6.26286C10.831 6.02466 11.2218 6.02732 11.4633 6.26883C11.7048 6.51033 11.7074 6.90107 11.4692 7.14584L6.41463 12.2004C6.29769 12.3178 6.13879 12.3836 5.97314 12.3834L5.97314 12.3834Z" id="Group" fill="#C4E2FF" fill-rule="evenodd" stroke="none" />
            <path d="M41.3761 8.08951C41.0316 8.08956 40.7522 7.81055 40.7517 7.46607C40.7467 4.04291 37.9569 1.25385 34.5326 1.24876C34.367 1.24852 34.2083 1.1825 34.0914 1.06523C33.9745 0.947957 33.9089 0.789037 33.9092 0.623438C33.9097 0.27899 34.189 7.51019e-06 34.5335 0L34.5345 0C38.6452 0.00607031 41.9944 3.3545 42.0005 7.46427C42.001 7.80909 41.7219 8.08904 41.3771 8.08959L41.3761 8.08951L41.3761 8.08951ZM38.855 8.08535C38.5106 8.0854 38.2312 7.80639 38.2307 7.46191C38.2277 5.42885 36.5705 3.77239 34.5363 3.76936C34.3707 3.76912 34.212 3.7031 34.0951 3.58583C33.9782 3.46855 33.9126 3.30963 33.9129 3.14403C33.9134 2.79959 34.1928 2.5206 34.5372 2.5206L34.5382 2.5206C37.2588 2.52462 39.4754 4.74044 39.4795 7.46003C39.4797 7.62562 39.4142 7.78454 39.2973 7.90182C39.1803 8.01909 39.0216 8.08511 38.856 8.08535L38.855 8.08535L38.855 8.08535Z" id="Group" fill="#E2DEE2" fill-rule="evenodd" stroke="none" />
          </g>
        </g>
      </g>
    </g>
  </g>
</svg>